# xmcd
#
# Track frame offsets:
#	182
#	20032
#	32172
#	44245
#	54832
#	67170
#	83642
#	100162
#	110895
#	124590
#
# Disc length: 1818 seconds
#
# Revision: 2
# Processed by: cddbd v1.5.1PL2 Copyright (c) Steve Scherf et al.
# Submitted via: audiograbber 1.83.01
#
DISCID=8c07180a
DTITLE=Various Artist - The 101 Greatest Country Hits Vol 1:  Forever Country
DYEAR=1994
DGENRE=Country
TTITLE0=Marty Robbins - El Paso
TTITLE1=Tammy Wynette - Stand By Your Man
TTITLE2=Eddy Arnold - Make The World Go Away
TTITLE3=The Statler Brothers - Flowers On The Wall
TTITLE4=Patsy Cline - Crazy
TTITLE5=Ronnie Milsap - It Was Almost Like A Song
TTITLE6=Barbara Mandrell - I Was Country When Country Wasn't Cool
TTITLE7=Leroy Van Dyke - Walk On By
TTITLE8=Loretta Lynn - Coal Miner's Daughter
TTITLE9=Jack Greene - There Goes My Everything
EXTD=
EXTT0=MARTY ROBBINS
EXTT1=TAMMY WYNETTE
EXTT2=EDDY ARNOLD
EXTT3=STATLER BROTHERS
EXTT4=PATSY CLINE
EXTT5=RONNIE MILSAP
EXTT6=BARBARA MANDRELL
EXTT7=LEROY VAN DYKE
EXTT8=LORETTA LYNN
EXTT9=JACK GREENE
PLAYORDER=
